<svg xmlns="http://www.w3.org/2000/svg" xmlns:xlink="http://www.w3.org/1999/xlink" viewBox="0 0 48 60" version="1.1" x="0px" y="0px"><title>mid_autumn_021-mooncake-festival-cake-food</title><desc>Created with Sketch.</desc><g stroke="none" stroke-width="1" fill="none" fill-rule="evenodd"><g transform="translate(-432.000000, -192.000000)" fill-rule="nonzero" fill="#000000"><g transform="translate(436.000000, 196.000000)"><path d="M6.61099612,31.0872675 C7.56159833,31.752689 8.8173578,32.0973733 10.0980515,32.0818381 C10.1304109,33.0237134 10.6616043,33.9226932 11.6023381,34.5812069 C12.5529403,35.2466284 13.8086998,35.5913127 15.0893935,35.5757774 C15.1217529,36.5176527 15.6529463,37.4166326 16.5936801,38.0751462 C18.4887415,39.4016892 21.5112585,39.4016892 23.4063199,38.0751462 C24.3470537,37.4166326 24.8782471,36.5176527 24.9106065,35.5757774 C26.1913002,35.5913127 27.4470597,35.2466284 28.3976619,34.5812069 C29.3383957,33.9226932 29.8695891,33.0237134 29.9019485,32.0818381 C31.1826422,32.0973733 32.4384017,31.752689 33.3890039,31.0872675 C34.3297377,30.4287538 34.8609311,29.529774 34.8932905,28.5878987 C36.1739842,28.6034339 37.4297437,28.2587496 38.3803459,27.5933281 C39.3464122,26.9170816 39.8857907,25.9860102 39.8857907,25 L39.8857907,15 C39.8857907,14.7238576 39.661933,14.5 39.3857907,14.5 C39.1096483,14.5 38.8857907,14.7238576 38.8857907,15 L38.8857907,25 C38.8857907,25.6415197 38.5180807,26.2762582 37.8068835,26.7740962 C36.916158,27.397604 35.6514958,27.6842703 34.3998673,27.5598617 C34.0649668,27.5265734 33.7934853,27.8269782 33.8603926,28.1568113 C34.0124658,28.9064873 33.6541817,29.6809874 32.8155415,30.2680355 C31.924816,30.8915434 30.6601538,31.1782097 29.4085253,31.0538011 C29.0736249,31.0205128 28.8021433,31.3209176 28.8690506,31.6507507 C29.0211238,32.4004267 28.6628397,33.1749268 27.8241996,33.7619749 C26.9334741,34.3854828 25.6688119,34.6721491 24.4171834,34.5477404 C24.0822829,34.5144522 23.8108014,34.8148569 23.8777086,35.14469 C24.0297818,35.8943661 23.6714977,36.6688662 22.8328576,37.2559143 C21.2821164,38.3414332 18.7178836,38.3414332 17.1671424,37.2559143 C16.3285023,36.6688662 15.9702182,35.8943661 16.1222914,35.14469 C16.1891986,34.8148569 15.9177171,34.5144522 15.5828166,34.5477404 C14.3311881,34.6721491 13.0665259,34.3854828 12.1758004,33.7619749 C11.3371603,33.1749268 10.9788762,32.4004267 11.1309494,31.6507507 C11.1978567,31.3209176 10.9263751,31.0205128 10.5914747,31.0538011 C9.33984616,31.1782097 8.07518396,30.8915434 7.18445846,30.2680355 C6.34581829,29.6809874 5.98753425,28.9064873 6.13960742,28.1568113 C6.20651467,27.8269782 5.93503316,27.5265734 5.60013267,27.5598617 C4.34850418,27.6842703 3.08384197,27.397604 2.19311648,26.7740962 C1.48191935,26.2762582 1.11420934,25.6415197 1.11420934,25 L1.11420934,15 C1.11420934,14.7238576 0.890351715,14.5 0.61420934,14.5 C0.338066965,14.5 0.11420934,14.7238576 0.11420934,15 L0.11420934,25 C0.11420934,25.9860102 0.653587798,26.9170816 1.61965413,27.5933281 C2.57025634,28.2587496 3.82601581,28.6034339 5.10670953,28.5878987 C5.13906892,29.529774 5.67026232,30.4287538 6.61099612,31.0872675 Z"/><path d="M34.8504123,28.0574099 L34.8504123,18.2636284 C34.8504123,17.987486 34.6265547,17.7636284 34.3504123,17.7636284 C34.07427,17.7636284 33.8504123,17.987486 33.8504123,18.2636284 L33.8504123,28.0574099 C33.8504123,28.3335522 34.07427,28.5574099 34.3504123,28.5574099 C34.6265547,28.5574099 34.8504123,28.3335522 34.8504123,28.0574099 Z"/><path d="M28.8590704,22.0717288 L28.8590704,31.5513492 C28.8590704,31.8274916 29.082928,32.0513492 29.3590704,32.0513492 C29.6352127,32.0513492 29.8590704,31.8274916 29.8590704,31.5513492 L29.8590704,22.0717288 C29.8590704,21.7955865 29.6352127,21.5717288 29.3590704,21.5717288 C29.082928,21.5717288 28.8590704,21.7955865 28.8590704,22.0717288 Z"/><path d="M23.8677284,25.8129561 L23.8677284,35.0452886 C23.8677284,35.321431 24.091586,35.5452886 24.3677284,35.5452886 C24.6438707,35.5452886 24.8677284,35.321431 24.8677284,35.0452886 L24.8677284,25.8129561 C24.8677284,25.5368137 24.6438707,25.3129561 24.3677284,25.3129561 C24.091586,25.3129561 23.8677284,25.5368137 23.8677284,25.8129561 Z"/><path d="M15.1322716,25.2799749 L15.1322716,35.0452886 C15.1322716,35.321431 15.3561293,35.5452886 15.6322716,35.5452886 C15.908414,35.5452886 16.1322716,35.321431 16.1322716,35.0452886 L16.1322716,25.2799749 C16.1322716,25.0038325 15.908414,24.7799749 15.6322716,24.7799749 C15.3561293,24.7799749 15.1322716,25.0038325 15.1322716,25.2799749 Z"/><path d="M10.1409296,21.7722215 L10.1409296,31.5513492 C10.1409296,31.8274916 10.3647873,32.0513492 10.6409296,32.0513492 C10.917072,32.0513492 11.1409296,31.8274916 11.1409296,31.5513492 L11.1409296,21.7722215 C11.1409296,21.4960791 10.917072,21.2722215 10.6409296,21.2722215 C10.3647873,21.2722215 10.1409296,21.4960791 10.1409296,21.7722215 Z"/><path d="M5.14958766,18.2375616 L5.14958766,28.0574099 C5.14958766,28.3335522 5.37344529,28.5574099 5.64958766,28.5574099 C5.92573004,28.5574099 6.14958766,28.3335522 6.14958766,28.0574099 L6.14958766,18.2375616 C6.14958766,17.9614192 5.92573004,17.7375616 5.64958766,17.7375616 C5.37344529,17.7375616 5.14958766,17.9614192 5.14958766,18.2375616 Z"/><g><path d="M23.8777086,25.14469 C23.8108014,24.8148569 24.0822829,24.5144522 24.4171834,24.5477404 C25.6688119,24.6721491 26.9334741,24.3854828 27.8241996,23.7619749 C28.6628397,23.1749268 29.0211238,22.4004267 28.8690506,21.6507507 C28.8021433,21.3209176 29.0736249,21.0205128 29.4085253,21.0538011 C30.6601538,21.1782097 31.924816,20.8915434 32.8155415,20.2680355 C33.6541817,19.6809874 34.0124658,18.9064873 33.8603926,18.1568113 C33.7934853,17.8269782 34.0649668,17.5265734 34.3998673,17.5598617 C35.6514958,17.6842703 36.916158,17.397604 37.8068835,16.7740962 C39.2454264,15.7671162 39.2454264,14.2328838 37.8068835,13.2259038 C36.916158,12.602396 35.6514958,12.3157297 34.3998673,12.4401383 C34.0649668,12.4734266 33.7934853,12.1730218 33.8603926,11.8431887 C34.0124658,11.0935127 33.6541817,10.3190126 32.8155415,9.73196445 C31.924816,9.10845661 30.6601538,8.82179033 29.4085253,8.94619895 C29.0736249,8.97948718 28.8021433,8.67908244 28.8690506,8.34924934 C29.0211238,7.59957327 28.6628397,6.82507318 27.8241996,6.23802506 C26.9334741,5.61451722 25.6688119,5.32785094 24.4171834,5.45225956 C24.0822829,5.4855478 23.8108014,5.18514305 23.8777086,4.85530996 C24.0297818,4.10563389 23.6714977,3.3311338 22.8328576,2.74408567 C21.2821164,1.65856683 18.7178836,1.65856683 17.1671424,2.74408567 C16.3285023,3.3311338 15.9702182,4.10563389 16.1222914,4.85530996 C16.1891986,5.18514305 15.9177171,5.4855478 15.5828166,5.45225956 C14.3311881,5.32785094 13.0665259,5.61451722 12.1758004,6.23802506 C11.3371603,6.82507318 10.9788762,7.59957327 11.1309494,8.34924934 C11.1978567,8.67908244 10.9263751,8.97948718 10.5914747,8.94619895 C9.33984616,8.82179033 8.07518396,9.10845661 7.18445846,9.73196445 C6.34581829,10.3190126 5.98753425,11.0935127 6.13960742,11.8431887 C6.20651467,12.1730218 5.93503316,12.4734266 5.60013267,12.4401383 C4.34850418,12.3157297 3.08384197,12.602396 2.19311648,13.2259038 C0.754573627,14.2328838 0.754573627,15.7671162 2.19311648,16.7740962 C3.08384197,17.397604 4.34850418,17.6842703 5.60013267,17.5598617 C5.93503316,17.5265734 6.20651467,17.8269782 6.13960742,18.1568113 C5.98753425,18.9064873 6.34581829,19.6809874 7.18445846,20.2680355 C8.07518396,20.8915434 9.33984616,21.1782097 10.5914747,21.0538011 C10.9263751,21.0205128 11.1978567,21.3209176 11.1309494,21.6507507 C10.9788762,22.4004267 11.3371603,23.1749268 12.1758004,23.7619749 C13.0665259,24.3854828 14.3311881,24.6721491 15.5828166,24.5477404 C15.9177171,24.5144522 16.1891986,24.8148569 16.1222914,25.14469 C15.9702182,25.8943661 16.3285023,26.6688662 17.1671424,27.2559143 C18.7178836,28.3414332 21.2821164,28.3414332 22.8328576,27.2559143 C23.6714977,26.6688662 24.0297818,25.8943661 23.8777086,25.14469 Z M23.4063199,28.0751462 C21.5112585,29.4016892 18.4887415,29.4016892 16.5936801,28.0751462 C15.6529463,27.4166326 15.1217529,26.5176527 15.0893935,25.5757774 C13.8086998,25.5913127 12.5529403,25.2466284 11.6023381,24.5812069 C10.6616043,23.9226932 10.1304109,23.0237134 10.0980515,22.0818381 C8.8173578,22.0973733 7.56159833,21.752689 6.61099612,21.0872675 C5.67026232,20.4287538 5.13906892,19.529774 5.10670953,18.5878987 C3.82601581,18.6034339 2.57025634,18.2587496 1.61965413,17.5933281 C-0.387605591,16.1882463 -0.387605591,13.8117537 1.61965413,12.4066719 C2.57025634,11.7412504 3.82601581,11.3965661 5.10670953,11.4121013 C5.13906892,10.470226 5.67026232,9.57124619 6.61099612,8.91273253 C7.56159833,8.24731099 8.8173578,7.90262674 10.0980515,7.91816194 C10.1304109,6.97628665 10.6616043,6.0773068 11.6023381,5.41879314 C12.5529403,4.7533716 13.8086998,4.40868735 15.0893935,4.42422255 C15.1217529,3.48234726 15.6529463,2.58336741 16.5936801,1.92485375 C18.4887415,0.598310799 21.5112585,0.598310799 23.4063199,1.92485375 C24.3470537,2.58336741 24.8782471,3.48234726 24.9106065,4.42422255 C26.1913002,4.40868735 27.4470597,4.7533716 28.3976619,5.41879314 C29.3383957,6.0773068 29.8695891,6.97628665 29.9019485,7.91816194 C31.1826422,7.90262674 32.4384017,8.24731099 33.3890039,8.91273253 C34.3297377,9.57124619 34.8609311,10.470226 34.8932905,11.4121013 C36.1739842,11.3965661 37.4297437,11.7412504 38.3803459,12.4066719 C40.3876056,13.8117537 40.3876056,16.1882463 38.3803459,17.5933281 C37.4297437,18.2587496 36.1739842,18.6034339 34.8932905,18.5878987 C34.8609311,19.529774 34.3297377,20.4287538 33.3890039,21.0872675 C32.4384017,21.752689 31.1826422,22.0973733 29.9019485,22.0818381 C29.8695891,23.0237134 29.3383957,23.9226932 28.3976619,24.5812069 C27.4470597,25.2466284 26.1913002,25.5913127 24.9106065,25.5757774 C24.8782471,26.5176527 24.3470537,27.4166326 23.4063199,28.0751462 Z"/><path d="M26.777156,11.0171867 C30.4474503,11.2309061 35.5,13.3933456 35.5,15 C35.5,16.6066544 30.4474503,18.7690939 26.777156,18.9828133 C26.4639984,18.6701034 26.1060206,18.335243 25.7093463,17.9836323 C25.868615,17.9944931 26.0340972,18 26.2058824,18 C27.8144916,18 29.9154559,17.5094325 31.7586767,16.7500691 C33.3831592,16.0808208 34.5,15.2885048 34.5,15 C34.5,14.7114952 33.3831592,13.9191792 31.7586767,13.2499309 C29.9154559,12.4905675 27.8144916,12 26.2058824,12 C26.0340972,12 25.868615,12.0055069 25.7093463,12.0163677 C26.1060206,11.664757 26.4639984,11.3298966 26.777156,11.0171867 Z M25.4912278,19.5853683 C25.3016684,22.2449791 22.0826505,26 20,26 C17.9173495,26 14.6983316,22.2449791 14.5087722,19.5853683 C14.8256594,19.4280589 15.1630926,19.2537015 15.5173064,19.0637408 C15.5058204,19.1535483 15.5,19.2469379 15.5,19.3441176 C15.5,21.4937451 18.4479471,25 20,25 C21.5520529,25 24.5,21.4937451 24.5,19.3441176 C24.5,19.2469379 24.4941796,19.1535483 24.4826936,19.0637408 C24.8369074,19.2537015 25.1743406,19.4280589 25.4912278,19.5853683 Z M13.222844,18.9828133 C9.55254969,18.7690939 4.5,16.6066544 4.5,15 C4.5,13.3933456 9.55254969,11.2309061 13.222844,11.0171867 C13.5360016,11.3298966 13.8939794,11.664757 14.2906537,12.0163677 C14.131385,12.0055069 13.9659028,12 13.7941176,12 C12.1855084,12 10.0845441,12.4905675 8.24132331,13.2499309 C6.6168408,13.9191792 5.5,14.7114952 5.5,15 C5.5,15.2885048 6.6168408,16.0808208 8.24132331,16.7500691 C10.0845441,17.5094325 12.1855084,18 13.7941176,18 C13.9659028,18 14.131385,17.9944931 14.2906537,17.9836323 C13.8939794,18.335243 13.5360016,18.6701034 13.222844,18.9828133 Z M14.5087722,10.4146317 C14.6983316,7.75502086 17.9173495,4 20,4 C22.0826505,4 25.3016684,7.75502086 25.4912278,10.4146317 C25.1743406,10.5719411 24.8369074,10.7462985 24.4826936,10.9362592 C24.4941796,10.8464517 24.5,10.7530621 24.5,10.6558824 C24.5,8.50625486 21.5520529,5 20,5 C18.4479471,5 15.5,8.50625486 15.5,10.6558824 C15.5,10.7530621 15.5058204,10.8464517 15.5173064,10.9362592 C15.1630926,10.7462985 14.8256594,10.5719411 14.5087722,10.4146317 Z"/><path d="M18.7741481,12.8477985 C15.5322232,10.7907727 12.6703298,9.42995329 11.9407352,9.43754073 C11.9553268,9.46979525 11.9736845,9.50649729 11.9960785,9.54704731 C12.1646612,9.85230897 12.5043349,10.2758226 12.9922938,10.7825511 C13.8838549,11.7084068 15.214032,12.8567509 16.8047359,14.0705313 C16.3984214,14.6628418 16.3984214,15.3371582 16.8047359,15.9294687 C15.214032,17.1432491 13.8838549,18.2915932 12.9922938,19.2174489 C12.5043349,19.7241774 12.1646612,20.147691 11.9960785,20.4529527 C11.9736845,20.4935027 11.9553268,20.5302048 11.9407352,20.5624593 C12.6703298,20.5700467 15.5322232,19.2092273 18.7741481,17.1522015 C19.563624,17.3492662 20.436376,17.3492662 21.2258519,17.1522015 C24.4677768,19.2092273 27.3296702,20.5700467 28.0592648,20.5624593 C28.0446732,20.5302048 28.0263155,20.4935027 28.0039215,20.4529527 C27.8353388,20.147691 27.4956651,19.7241774 27.0077062,19.2174489 C26.1161451,18.2915932 24.785968,17.1432491 23.1952641,15.9294687 C23.6015786,15.3371582 23.6015786,14.6628418 23.1952641,14.0705313 C24.785968,12.8567509 26.1161451,11.7084068 27.0077062,10.7825511 C27.4956651,10.2758226 27.8353388,9.85230897 28.0039215,9.54704731 C28.0263155,9.50649729 28.0446732,9.46979525 28.0592648,9.43754073 C27.3296702,9.42995329 24.4677768,10.7907727 21.2258519,12.8477985 C20.436376,12.6507338 19.563624,12.6507338 18.7741481,12.8477985 Z M12.2719721,11.4761914 C10.9670141,10.1210372 10.4541525,9.19237154 11.2279875,8.65068708 C12.1804009,7.98399767 15.6696525,9.60726375 20,12.4478703 C24.3303475,9.60726375 27.8195991,7.98399767 28.7720125,8.65068708 C29.5458475,9.19237154 29.0329859,10.1210372 27.7280279,11.4761914 C26.764191,12.4771029 25.3312282,13.7083339 23.6249527,15 C25.3312282,16.2916661 26.764191,17.5228971 27.7280279,18.5238086 C29.0329859,19.8789628 29.5458475,20.8076285 28.7720125,21.3493129 C27.8195991,22.0160023 24.3303475,20.3927363 20,17.5521297 C15.6696525,20.3927363 12.1804009,22.0160023 11.2279875,21.3493129 C10.4541525,20.8076285 10.9670141,19.8789628 12.2719721,18.5238086 C13.235809,17.5228971 14.6687718,16.2916661 16.3750473,15 C14.6687718,13.7083339 13.235809,12.4771029 12.2719721,11.4761914 Z"/><path d="M25.2599835,12.4076733 C27.8907963,12.520588 31.5,13.8583238 31.5,15 C31.5,16.1416762 27.8907963,17.479412 25.2599835,17.5923267 C24.8628457,17.2522948 24.4337342,16.8993024 23.9776775,16.5377841 C24.2992967,16.5787208 24.6127334,16.6 24.9117647,16.6 C27.028215,16.6 30.5,15.3604124 30.5,15 C30.5,14.6395876 27.028215,13.4 24.9117647,13.4 C24.6127289,13.4 24.2992898,13.4212803 23.9776777,13.4622158 C24.4337343,13.1006975 24.8628457,12.7477052 25.2599835,12.4076733 Z M23.4987666,18.519943 C23.4415466,20.4335924 21.4059042,23.2 20,23.2 C18.5940958,23.2 16.5584534,20.4335924 16.5012334,18.519943 C16.8415369,18.3265287 17.1925445,18.1217003 17.5515756,17.9064862 C17.5175579,18.1109691 17.5,18.290287 17.5,18.4382353 C17.5,19.8574514 19.2069347,22.2 20,22.2 C20.7930653,22.2 22.5,19.8574514 22.5,18.4382353 C22.5,18.2902794 22.4824413,18.1109613 22.4484248,17.9064865 C22.8074557,18.1217004 23.1584632,18.3265287 23.4987666,18.519943 Z M14.7400165,17.5923267 C12.1092037,17.479412 8.5,16.1416762 8.5,15 C8.5,13.8583238 12.1092037,12.520588 14.7400165,12.4076733 C15.1369509,12.7475311 15.5658263,13.1003361 16.0216219,13.4616605 C15.6991768,13.4210886 15.3859237,13.4 15.0882353,13.4 C12.971785,13.4 9.5,14.6395876 9.5,15 C9.5,15.3604124 12.971785,16.6 15.0882353,16.6 C15.3859192,16.6 15.6991699,16.5789124 16.021622,16.5383394 C15.5658264,16.8996639 15.136951,17.2524689 14.7400165,17.5923267 Z M16.5012334,11.480057 C16.5584534,9.56640757 18.5940958,6.8 20,6.8 C21.4059042,6.8 23.4415466,9.56640757 23.4987666,11.480057 C23.1582164,11.6736115 22.8069465,11.8785967 22.4476435,12.0939818 C22.482176,11.8901868 22.5,11.7107434 22.5,11.5617647 C22.5,10.1425486 20.7930653,7.8 20,7.8 C19.2069347,7.8 17.5,10.1425486 17.5,11.5617647 C17.5,11.7107358 17.5178231,11.8901789 17.5523569,12.0939821 C17.1930537,11.8785968 16.8417838,11.6736116 16.5012334,11.480057 Z"/><path d="M16.8848417,12.6104851 C18.6190989,11.396505 21.3809011,11.396505 23.1151583,12.6104851 C24.9616139,13.903004 24.9616139,16.096996 23.1151583,17.3895149 C21.3809011,18.603495 18.6190989,18.603495 16.8848417,17.3895149 C15.0383861,16.096996 15.0383861,13.903004 16.8848417,12.6104851 Z M17.458304,16.570283 C18.8482411,17.543239 21.1517589,17.543239 22.541696,16.570283 C23.8194347,15.6758659 23.8194347,14.3241341 22.541696,13.429717 C21.1517589,12.456761 18.8482411,12.456761 17.458304,13.429717 C16.1805653,14.3241341 16.1805653,15.6758659 17.458304,16.570283 Z"/></g></g></g></g><text x="0" y="63" fill="#000000" font-size="5px" font-weight="bold" font-family="'Helvetica Neue', Helvetica, Arial-Unicode, Arial, Sans-serif">Created by Xinh Studio</text><text x="0" y="68" fill="#000000" font-size="5px" font-weight="bold" font-family="'Helvetica Neue', Helvetica, Arial-Unicode, Arial, Sans-serif">from the Noun Project</text></svg>